<?xml version="1.0" encoding="UTF-8"?>
<svg id="Layer_1" data-name="Layer 1" xmlns="http://www.w3.org/2000/svg" viewBox="0 0 455.67 455.67">
  <defs>
    <style>
      .cls-1 {
        fill: #006262;
      }

      .cls-2 {
        fill: #fafafa;
      }
    </style>
  </defs>
  <rect class="cls-1" width="455.67" height="455.67"/>
  <g>
    <path class="cls-2" d="M223.36,222.07c0-7.17-5.83-13-13-13s-13,5.83-13,13,5.83,13,13,13,13-5.83,13-13Z"/>
    <path class="cls-2" d="M312.82,223.46s-.09-39.74-.09-66.98c0-29.74-25.49-37.68-40.55-37.68h-41.96c-8.12,0-14.73,6.61-14.73,14.73v7.03h-24.66c-14.67,0-26.33,4.47-34.66,13.27-14.57,15.42-13.35,37.9-13.29,38.71v102.27c0,32.29,29.23,41.3,40.64,42.05h57.99v-46.55h-26.03v20.53h-31.76c-1.52-.08-14.82-1.22-14.82-16.02v-102.44c0-.13-.41-12.62,6.71-20.07,3.63-3.8,8.75-5.72,15.22-5.72h50.68v-21.76h30.57c.6,0,14.7.18,14.7,16.02v62.82c0,.13.41,12.62-6.71,20.07-3.63,3.8-8.75,5.72-15.22,5.72-.89,0-63.58.06-63.58.06h-3.93v26.04l74.34-.44c42.63-4.48,41.2-49.82,41.12-51.66Z"/>
  </g>
</svg>