<?xml version="1.0" encoding="UTF-8"?>
<svg id="Layer_1" data-name="Layer 1" xmlns="http://www.w3.org/2000/svg" viewBox="0 0 518.21 587.85">
  <defs>
    <style>
      .cls-1 {
        fill: #006262;
      }

      .cls-2 {
        fill: #fafafa;
      }
    </style>
  </defs>
  <rect class="cls-1" width="518.21" height="587.85"/>
  <g>
    <g>
      <path class="cls-2" d="M402.96,320.05c-15.89,0-23.95,8.74-23.95,25.97v16.63c0,7.29,4.1,11.14,11.85,11.14h26.81v19.36h13.16v-73.11h-27.88ZM417.68,332.59v28.66h-25.54v-16.27c0-8.46,3.38-12.39,10.62-12.39h14.92Z"/>
      <path class="cls-2" d="M364.03,320.04h-42.88v12.58h37.84v8.19h-32.31c-3.05,0-5.53,2.38-5.53,5.3v22.3c0,2.92,2.48,5.3,5.53,5.3h45.48v-45.95c0-4.26-3.64-7.73-8.12-7.73ZM358.99,353.39v7.75h-24.67v-7.75h24.67Z"/>
      <path class="cls-2" d="M305.24,320.04h-49.41c-4.76,0-8.63,3.68-8.63,8.21v45.47h13.16v-41.1h13.65v41.1h13.16v-41.1h13.65v41.1h13.16v-45.35c0-4.59-3.93-8.32-8.75-8.32Z"/>
      <path class="cls-2" d="M231.47,320.04h-34.32c-4.48,0-8.12,3.47-8.12,7.73v38.22c0,4.26,3.64,7.73,8.12,7.73h42.88v-12.58h-37.84v-9h29.27c4.72,0,8.57-3.66,8.57-8.15v-15.8c0-4.49-3.84-8.15-8.57-8.15ZM202.2,339.57v-6.95h24.67v6.95h-24.67Z"/>
      <path class="cls-2" d="M152.26,306.59v13.45h-8.08v12.58h8.08v41.1h13.16v-41.1h17.11v-12.58h-17.11v-8.82h19.2v-12.58h-24.01c-4.6,0-8.35,3.56-8.35,7.95Z"/>
      <path class="cls-2" d="M129.81,320.04h-34.32c-4.48,0-8.12,3.47-8.12,7.73v38.22c0,4.26,3.64,7.73,8.12,7.73h42.88v-12.58h-37.84v-9h29.27c4.72,0,8.57-3.66,8.57-8.15v-15.8c0-4.49-3.84-8.15-8.57-8.15ZM100.54,339.57v-6.95h24.67v6.95h-24.67Z"/>
    </g>
    <g>
      <path class="cls-2" d="M256.97,232.28c0-3.42-2.78-6.2-6.2-6.2s-6.2,2.78-6.2,6.2,2.78,6.2,6.2,6.2,6.2-2.78,6.2-6.2Z"/>
      <path class="cls-2" d="M299.61,232.95s-.04-18.94-.04-31.93c0-14.18-12.15-17.96-19.33-17.96h-20c-3.87,0-7.02,3.15-7.02,7.02v3.35h-11.75c-6.99,0-12.55,2.13-16.52,6.33-6.95,7.35-6.36,18.07-6.34,18.45v48.75c0,15.39,13.93,19.69,19.37,20.05h27.65v-22.19h-12.41v9.78h-15.14c-.72-.04-7.06-.58-7.06-7.64v-48.83c0-.06-.19-6.02,3.2-9.57,1.73-1.81,4.17-2.73,7.25-2.73h24.16v-10.37h14.57c.29,0,7.01.09,7.01,7.64v29.94c0,.06.19,6.02-3.2,9.57-1.73,1.81-4.17,2.73-7.25,2.73-.42,0-30.31.03-30.31.03h-1.87v12.41l35.43-.21c20.32-2.14,19.64-23.75,19.6-24.63Z"/>
    </g>
  </g>
</svg>