<svg xmlns="http://www.w3.org/2000/svg" xmlns:xlink="http://www.w3.org/1999/xlink" width="3000" zoomAndPan="magnify" viewBox="0 0 2250 2250.000011" height="3000" preserveAspectRatio="xMidYMid meet" version="1.0"><defs><g/><clipPath id="dfd99d2837"><path d="M 75 718.785156 L 2178 718.785156 L 2178 1800 L 75 1800 Z M 75 718.785156 " clip-rule="nonzero"/></clipPath><clipPath id="6a50588c8d"><path d="M 1 1 L 2100 1 L 2100 1081.199219 L 1 1081.199219 Z M 1 1 " clip-rule="nonzero"/></clipPath><clipPath id="8c7cbadf39"><rect x="0" width="2103" y="0" height="1082"/></clipPath><clipPath id="531ac51cbc"><path d="M 0.570312 149 L 1 149 L 1 150 L 0.570312 150 Z M 0.570312 149 " clip-rule="nonzero"/></clipPath><clipPath id="a397e3bb1e"><rect x="0" width="257" y="0" height="191"/></clipPath></defs><g clip-path="url(#dfd99d2837)"><g transform="matrix(1, 0, 0, 1, 75, 718)"><g clip-path="url(#8c7cbadf39)"><g clip-path="url(#6a50588c8d)"><path fill="#ffffff" d="M 2098.953125 693.855469 L 1992.785156 1068.058594 C 1990.167969 1077.027344 1980.824219 1082.636719 1971.476562 1080.765625 C 1961.757812 1078.523438 1955.777344 1068.804688 1958.019531 1059.457031 L 2030.167969 743.203125 C 1940.078125 845.257812 1829.425781 929.742188 1703.820312 985.441406 C 1631.671875 1015.722656 1556.15625 1037.777344 1479.523438 1053.105469 C 1402.890625 1068.058594 1324.386719 1075.535156 1245.882812 1073.289062 C 1206.628906 1072.167969 1167.378906 1068.804688 1128.5 1062.074219 C 1123.640625 1061.328125 1118.78125 1060.582031 1113.921875 1059.832031 L 1099.34375 1056.84375 L 1084.761719 1053.851562 C 1082.519531 1053.476562 1079.902344 1052.730469 1077.660156 1052.355469 L 1070.558594 1050.488281 L 1041.773438 1043.011719 C 1032.429688 1040.394531 1022.707031 1037.027344 1013.363281 1034.414062 C 975.980469 1022.078125 938.972656 1007.496094 903.832031 988.804688 L 890.746094 982.078125 C 886.261719 979.832031 882.148438 977.21875 877.664062 974.601562 L 851.871094 959.648438 C 843.644531 954.414062 835.421875 948.804688 827.199219 943.199219 L 814.863281 934.976562 C 810.75 932.359375 807.011719 928.992188 802.898438 926.375 C 771.125 902.824219 740.84375 877.03125 712.433594 849.367188 C 684.394531 821.707031 657.855469 792.171875 633.554688 760.773438 C 609.257812 729.746094 586.828125 696.847656 567.015625 662.457031 C 546.828125 628.0625 529.257812 592.550781 514.679688 555.167969 C 500.101562 518.160156 488.511719 479.28125 481.035156 439.65625 C 479.167969 428.816406 477.671875 418.347656 476.175781 407.507812 C 474.679688 407.132812 472.8125 407.132812 471.316406 406.757812 C 461.222656 404.890625 451.503906 403.019531 441.785156 400.777344 L 427.578125 397.789062 L 412.625 394.050781 C 333.375 374.609375 258.234375 339.84375 191.320312 294.984375 C 124.03125 250.125 64.21875 195.546875 10.761719 136.484375 C 10.761719 136.484375 10.390625 136.109375 10.390625 136.109375 C -3.070312 120.410156 -1.574219 96.859375 14.128906 83.398438 C 29.828125 69.941406 53.378906 71.4375 66.835938 87.136719 C 115.808594 143.210938 170.761719 194.425781 231.320312 236.292969 C 291.878906 278.164062 358.792969 310.6875 429.445312 329.003906 L 442.53125 332.367188 L 456.363281 335.730469 C 461.96875 336.855469 467.203125 338.347656 472.4375 339.46875 C 472.4375 332.367188 472.8125 325.640625 473.183594 318.535156 L 474.679688 303.210938 L 475.429688 295.359375 C 475.800781 292.742188 476.175781 290.125 476.550781 287.882812 L 479.164062 272.554688 C 480.289062 267.320312 481.410156 262.460938 482.53125 257.230469 C 484.398438 247.136719 488.136719 237.042969 490.753906 227.324219 C 493.746094 217.230469 497.855469 207.511719 501.96875 197.789062 C 510.195312 178.726562 519.914062 160.78125 530.753906 143.210938 C 535.988281 134.613281 541.96875 126.015625 547.949219 117.792969 C 553.929688 109.566406 560.285156 101.34375 567.015625 93.492188 C 580.472656 77.792969 595.425781 62.839844 612.246094 49.382812 C 620.472656 42.652344 629.445312 36.671875 638.789062 31.0625 C 648.136719 25.457031 658.226562 20.597656 668.320312 16.113281 C 678.789062 12 689.628906 8.636719 700.472656 6.019531 C 706.078125 4.898438 711.6875 3.773438 716.917969 3.402344 C 722.527344 2.652344 728.132812 2.28125 733.742188 1.90625 C 756.171875 0.785156 779.722656 3.027344 802.898438 12.746094 C 814.488281 17.605469 825.328125 23.960938 835.046875 32.558594 C 844.394531 41.15625 852.992188 50.878906 859.347656 61.71875 C 865.703125 72.558594 870.1875 84.148438 873.550781 95.363281 C 876.542969 106.949219 878.410156 118.164062 879.160156 129.378906 C 879.90625 140.59375 879.90625 151.4375 879.160156 162.277344 C 878.785156 167.511719 878.410156 173.117188 877.664062 177.976562 C 876.917969 183.210938 876.167969 188.820312 875.421875 194.425781 C 871.683594 216.109375 864.582031 237.414062 854.859375 257.230469 C 845.515625 277.042969 833.550781 295.359375 819.722656 311.808594 C 816.355469 315.917969 812.617188 320.03125 809.253906 324.144531 C 805.515625 327.882812 801.777344 331.992188 798.039062 335.730469 C 794.300781 339.46875 790.1875 343.207031 786.078125 346.945312 C 781.964844 350.683594 777.851562 354.050781 772.992188 357.789062 C 737.851562 383.582031 696.734375 400.777344 655.238281 409 C 613.371094 417.601562 571.5 418.347656 530.378906 414.984375 C 528.136719 414.609375 525.894531 414.609375 524.023438 414.234375 C 524.773438 419.84375 525.519531 425.824219 526.640625 431.429688 C 532.996094 467.691406 543.089844 503.578125 556.175781 538.71875 C 582.34375 608.625 620.472656 674.792969 665.703125 734.976562 C 688.507812 765.257812 713.179688 793.667969 739.722656 820.582031 C 766.265625 847.5 794.675781 872.546875 824.582031 895.347656 C 828.320312 898.339844 832.058594 900.957031 835.796875 903.945312 L 847.382812 911.796875 C 855.234375 917.03125 862.710938 922.636719 870.5625 927.871094 L 894.859375 942.449219 C 898.972656 944.695312 902.710938 947.3125 907.195312 949.554688 L 919.53125 956.28125 C 952.429688 974.226562 987.570312 988.804688 1023.082031 1001.140625 C 1032.054688 1004.132812 1041.027344 1007.121094 1049.996094 1009.738281 L 1077.285156 1017.214844 L 1084.015625 1019.085938 C 1086.257812 1019.832031 1088.5 1020.207031 1090.746094 1020.582031 L 1104.578125 1023.570312 L 1118.40625 1026.5625 C 1122.894531 1027.683594 1127.753906 1028.058594 1132.238281 1029.179688 C 1169.621094 1036.28125 1207.378906 1040.019531 1245.136719 1041.515625 C 1321.019531 1045.253906 1397.65625 1038.898438 1472.792969 1025.441406 C 1547.933594 1011.984375 1622.324219 991.421875 1692.976562 963.011719 C 1727.742188 948.058594 1762.136719 930.863281 1794.660156 911.421875 C 1827.554688 891.984375 1859.332031 870.300781 1889.609375 847.125 C 1934.84375 812.359375 1976.710938 773.480469 2015.214844 731.238281 L 1698.210938 819.835938 C 1689.238281 822.453125 1679.519531 817.21875 1676.53125 808.246094 C 1673.539062 798.902344 1678.398438 788.808594 1687.746094 785.445312 L 2061.945312 659.839844 C 2067.175781 657.96875 2072.785156 657.96875 2078.390625 659.464844 C 2094.464844 663.953125 2103.0625 679.277344 2098.953125 693.855469 Z M 537.855469 349.9375 C 573.742188 353.675781 610.003906 353.300781 644.023438 346.574219 C 678.042969 340.21875 710.191406 327.132812 737.851562 307.695312 C 740.84375 305.828125 744.207031 302.835938 747.199219 300.21875 C 750.191406 297.601562 753.554688 294.613281 756.542969 291.621094 C 759.535156 288.628906 762.527344 285.640625 765.515625 282.648438 C 768.507812 279.285156 771.496094 276.292969 774.113281 272.929688 C 784.957031 259.847656 794.675781 245.640625 802.152344 230.6875 C 809.628906 215.734375 815.234375 200.035156 818.226562 183.960938 C 818.972656 179.847656 819.722656 176.109375 820.09375 171.621094 C 820.84375 167.136719 821.214844 162.652344 821.589844 158.539062 C 822.335938 149.941406 822.335938 141.71875 821.964844 133.492188 C 821.589844 125.269531 820.46875 117.792969 818.601562 110.316406 C 816.730469 103.214844 814.113281 96.484375 810.75 90.503906 C 807.386719 84.523438 803.273438 79.660156 798.414062 75.175781 C 793.554688 70.691406 787.945312 67.324219 781.589844 64.707031 C 768.882812 59.101562 753.179688 56.859375 737.105469 57.234375 C 732.992188 57.234375 728.882812 57.605469 724.769531 57.980469 C 720.285156 58.355469 716.546875 59.101562 712.808594 59.847656 C 704.957031 61.34375 697.105469 63.585938 689.628906 66.578125 C 658.976562 78.539062 631.3125 100.96875 607.761719 127.511719 C 584.210938 154.425781 564.398438 185.453125 549.070312 217.976562 C 545.332031 226.203125 541.96875 234.425781 539.351562 242.648438 C 536.734375 251.246094 533.746094 259.472656 531.875 268.445312 C 530.753906 272.929688 529.632812 277.042969 528.886719 281.527344 L 526.640625 294.984375 C 526.269531 297.226562 525.894531 299.472656 525.519531 301.714844 L 524.773438 308.441406 L 523.277344 321.902344 C 522.53125 330.5 522.15625 338.722656 522.15625 347.320312 C 527.015625 348.816406 532.625 349.191406 537.855469 349.9375 Z M 537.855469 349.9375 " fill-opacity="1" fill-rule="nonzero"/></g></g></g></g><g transform="matrix(1, 0, 0, 1, 1464, 2042)"><g clip-path="url(#a397e3bb1e)"><g clip-path="url(#531ac51cbc)"><g fill="#ffffff" fill-opacity="1"><g transform="translate(0.692183, 149.31059)"><g/></g></g></g><g fill="#ffffff" fill-opacity="1"><g transform="translate(128.2857, 149.31059)"><g/></g></g></g></g></svg>